<svg width="198" height="85" viewBox="0 0 198 85" fill="none" xmlns="http://www.w3.org/2000/svg">
<path d="M76.7922 51.3185C77.5968 50.4051 79.0195 50.3231 79.8358 51.2249C79.999 51.4005 80.1623 51.5528 80.3139 51.6933C81.2935 52.5131 82.5762 52.9113 84.2438 52.9113C84.4187 52.9113 84.5936 52.9113 84.8152 52.8996L94.879 52.3257C96.1967 52.2672 98.1091 52.0329 99.4269 50.6978C99.7884 50.3348 100.092 49.9132 100.325 49.4448C100.593 48.9177 101.188 48.6601 101.736 48.8592C105.106 50.1357 108.931 50.7798 113.152 50.7798C113.374 50.7798 113.595 50.7798 113.817 50.7798C119.519 50.6979 124.242 50.1708 128.102 49.1988C128.65 49.0583 129.233 49.3393 129.443 49.8664C130.131 51.5528 131.939 53.6725 136.743 53.8013H137.105C138.761 53.8013 140.615 53.7545 142.621 53.6608C144.79 53.5554 146.725 53.4149 148.37 53.2275C150.655 52.9698 152.3 52.314 153.396 51.2249C154.504 50.1357 155.157 48.8006 155.273 47.3836V47.3016C155.471 43.718 155.355 37.4759 154.923 28.2357C154.492 19.1713 154.014 11.9689 153.501 6.80422L153.489 6.6871C153.209 4.66106 152.638 3.13861 151.751 2.03775C150.679 0.667539 149.023 0 146.83 0C146.655 0 146.469 0 146.282 0.0117112L133.525 0.608983C131.018 0.726095 129.245 1.58101 128.242 3.16203C127.507 4.32144 127.111 5.86732 127.029 7.89336C126.994 8.86539 126.971 10.0014 126.959 11.2896C126.959 11.6995 126.575 12.004 126.178 11.9103L125.49 11.7463C122.61 11.0437 119.578 10.6923 116.464 10.6923C116.254 10.6923 116.033 10.6923 115.823 10.6923C112.534 10.7392 109.712 11.0203 107.427 11.5121C105.094 12.0157 102.797 12.8238 100.605 13.9012C98.3774 15.0021 96.3949 16.3371 94.6924 17.8596C94.3309 18.1758 93.9927 18.5271 93.6662 18.8785C92.8849 19.7334 91.6837 20.073 90.5759 19.7451C88.955 19.2767 87.1824 19.0424 85.2467 19.0424C84.8502 19.0424 84.4537 19.0541 84.0455 19.0659C81.6316 19.183 79.4043 19.7451 77.3869 20.7406C76.349 21.2559 75.1596 21.2207 74.0867 20.7874C73.3521 20.4946 72.5008 20.3541 71.5329 20.3541C71.3813 20.3541 71.218 20.3541 71.0431 20.3658L64.7227 20.6586C63.918 20.6937 63.4399 19.792 63.918 19.1361C64.9442 17.7542 65.6089 15.9155 65.6206 13.4679C65.6206 10.5752 64.4661 8.15101 62.2504 6.45288C60.2097 4.91871 57.4926 4.15748 53.9126 4.14577H53.8193C42.6827 4.14577 41.0151 10.2707 41.0034 13.9246V14.6156C41.0034 14.9201 40.7935 15.1777 40.4903 15.2363L39.1609 15.4939C38.5545 15.6111 37.9482 15.33 37.6333 14.803C37.4584 14.5102 37.2601 14.2408 37.0152 13.9949C36.024 12.9877 34.613 12.449 32.8172 12.3788L29.7269 12.2616C29.1322 12.2382 28.654 11.7346 28.6774 11.1257L28.7707 8.6663C28.829 6.96817 28.1759 5.51598 26.9165 4.56737C25.9253 3.81786 24.5609 3.4431 22.4968 3.37283L19.6165 3.27914C19.4765 3.27914 19.3366 3.26743 19.1967 3.26743C17.5524 3.26743 16.0831 3.64219 14.8353 4.37999C13.8558 4.95384 12.3281 6.0547 10.0075 7.84651C7.37205 9.88427 6.28754 10.6923 5.83275 11.0085C5.47125 11.2662 5.08642 11.4301 4.65495 11.5238C3.05734 11.8635 1.85622 12.5778 1.09823 13.6436C0.421873 14.5922 0.0720325 15.8219 0.0137257 17.4966C-0.0329198 18.8433 0.0370484 19.8388 0.258614 20.6586C0.456858 21.4549 1.02826 22.9071 2.67252 23.7855C3.43051 24.1954 3.92028 24.9683 3.8853 25.8232L3.7337 29.8987C3.50047 36.2931 5.49457 40.8604 9.69266 43.4837C11.5935 44.6197 13.7392 45.4629 16.0598 45.9665C18.2288 46.435 20.5494 46.7277 22.9516 46.8097C23.6863 46.8332 24.421 46.8449 25.144 46.8449C26.7649 46.8449 28.3975 46.7746 30.0184 46.6458C31.8959 46.4935 34.5664 45.9314 35.8025 45.6386C36.1873 45.5449 36.5954 45.6972 36.817 46.0251C37.0969 46.435 37.4351 46.8214 37.8199 47.1611C38.9044 48.1214 40.4437 48.6015 42.6593 48.6835C43.464 48.7187 44.3269 48.7304 45.2365 48.7304C46.0062 48.7304 46.8225 48.7187 47.6621 48.6952C49.4813 48.6484 51.0905 48.5547 52.4432 48.4259C53.4578 48.3322 54.3324 48.1331 55.0904 47.8286C55.4635 47.6764 55.8833 47.9106 55.9416 48.3205L56.0349 48.906C56.2448 50.2177 56.9329 51.3888 57.994 52.2906C58.7287 52.9113 60.0115 53.6608 61.9939 53.6608H62.2971C65.1541 53.6608 67.1599 53.6374 68.4076 53.5788C69.6904 53.5203 71.0081 53.4149 72.3259 53.2509C74.2966 53.0167 75.731 52.4194 76.7105 51.4239C76.7455 51.3771 76.7689 51.342 76.7922 51.3185Z" fill="#1D1D1B"/>
<path d="M151.88 27.9899C151.448 18.9371 150.982 11.8401 150.469 6.7106C150.27 5.2584 149.909 4.21611 149.384 3.57199C148.859 2.92787 147.88 2.6468 146.411 2.71707L133.653 3.31434C132.195 3.38461 131.239 3.75937 130.808 4.43862C130.376 5.12958 130.12 6.1953 130.061 7.6592C129.968 9.80236 129.968 12.7419 130.061 16.466C128.72 15.5994 126.959 14.8967 124.755 14.358C121.922 13.6671 118.948 13.3391 115.846 13.386C112.744 13.4328 110.144 13.6905 108.045 14.1355C105.946 14.5922 103.905 15.3066 101.922 16.2787C99.94 17.2624 98.2025 18.4218 96.6981 19.7686C95.3571 20.9749 94.2842 22.4622 93.433 24.1954C93.4213 24.1837 93.4213 24.1837 93.4096 24.172C91.1124 22.3802 88.0221 21.5721 84.1505 21.7595C80.2789 21.9469 77.0487 23.5045 74.4832 26.4323V26.3854C74.32 25.1206 74.0284 24.2423 73.597 23.7387C73.1655 23.2351 72.3609 23.0009 71.1714 23.0594L60.9094 23.5396C59.7199 23.5982 58.9386 23.8909 58.5771 24.4414C58.2156 24.9918 58.0057 26.1278 57.9474 27.8728C57.8891 29.6177 57.9707 32.8383 58.1923 37.5462C58.4139 42.2541 58.6937 45.7441 59.0552 48.0043C59.1485 48.6016 59.4634 49.1169 59.9648 49.5502C60.4779 49.9835 61.1543 50.1943 61.9939 50.1943C64.9442 50.1943 67.0316 50.1709 68.2677 50.1124C69.4922 50.0538 70.7283 49.9484 71.976 49.8079C73.2122 49.6673 74.0751 49.3511 74.5415 48.871C75.008 48.3908 75.2879 47.8521 75.3578 47.2548C75.4861 45.5567 75.4511 42.3947 75.2296 37.757L75.078 34.5481C75.0313 33.5644 75.3229 32.7915 75.9409 32.2059C76.559 31.6321 77.2703 31.3276 78.0633 31.2924C78.8563 31.2573 79.5209 31.4915 80.069 31.9951C80.6171 32.4987 80.9203 33.2716 80.967 34.3256L81.515 47.1845C81.55 47.9926 81.7949 48.5899 82.2614 48.9764C82.7162 49.3628 83.5091 49.5268 84.6286 49.4682L94.7274 48.8827C95.9868 48.8241 96.8264 48.5782 97.2462 48.1566C97.666 47.735 97.8759 47.0674 97.8643 46.154C97.8526 45.5098 97.8293 44.4207 97.7593 42.8982C97.8876 42.9919 98.0159 43.0973 98.1558 43.191C102.261 46.0603 107.462 47.4422 113.759 47.3368C121.362 47.2197 127.204 46.2828 131.297 44.5378C131.414 44.491 131.519 44.4441 131.624 44.3856C131.764 45.6504 131.915 46.7512 132.067 47.6647C132.277 49.3745 133.828 50.2646 136.72 50.3466C138.411 50.3583 140.312 50.3114 142.446 50.206C144.568 50.1124 146.422 49.9718 147.985 49.7844C149.547 49.6088 150.632 49.2223 151.227 48.6367C151.821 48.0512 152.148 47.4188 152.206 46.7278C152.428 43.3081 152.311 37.0543 151.88 27.9899ZM117.117 20.5767C119.286 20.5415 120.394 21.7712 120.441 24.254C120.476 26.1044 119.053 27.053 116.184 27.0998C116.091 27.0998 115.006 27.0296 112.919 26.9007C113.071 22.7198 114.47 20.6235 117.117 20.5767ZM129.315 37.2183C128.37 37.757 127.123 38.2957 125.56 38.8227C124.009 39.3497 122.038 39.6308 119.648 39.6777C117.257 39.7128 115.59 39.1741 114.633 38.0498C113.677 36.9255 113.117 34.9815 112.942 32.2059C116.161 32.7095 119.275 32.932 122.272 32.8852C125.828 32.8266 128.627 32.3582 130.679 31.4681C130.738 32.4987 130.796 33.4941 130.854 34.4427C130.924 35.5787 130.33 36.6562 129.338 37.2183C129.327 37.2183 129.315 37.2183 129.315 37.2183Z" fill="white"/>
<path d="M35.1375 33.8456C34.7176 33.8339 33.8897 34.0213 32.6886 34.4077C31.4758 34.8059 30.4729 34.9816 29.6566 34.9582C28.0007 34.8996 27.1611 34.4312 26.2865 33.5294C25.4119 32.6276 24.9571 31.5151 24.9338 30.2268L25.1786 23.3875C25.1903 22.8956 25.2836 22.5209 25.4469 22.2515C25.6101 21.9939 25.96 21.8767 26.4964 21.8885L32.502 22.111C33.4232 22.1461 34.1229 21.9587 34.601 21.5605C35.0792 21.1624 35.3474 20.2138 35.394 18.703C35.4523 17.204 35.2657 16.2319 34.8343 15.7986C34.4028 15.3653 33.6914 15.1311 32.6886 15.096L26.508 14.8617C25.82 14.8383 25.4818 14.4284 25.5168 13.6203L25.7151 8.20976C25.7384 7.53051 25.5285 7.01522 25.0737 6.67559C24.6189 6.33597 23.721 6.13687 22.3799 6.09003L19.4879 5.98463C18.2518 5.93778 17.2139 6.17201 16.3627 6.66388C15.5114 7.16746 14.0071 8.2566 11.8497 9.9196C9.70401 11.5943 8.26966 12.6717 7.58164 13.1636C6.89362 13.6555 6.12397 13.9834 5.28435 14.1591C4.44473 14.3347 3.87333 14.6392 3.57013 15.0608C3.26694 15.4824 3.09202 16.2085 3.05703 17.2391C3.02205 18.2697 3.06869 19.0309 3.20863 19.5228C3.44186 20.5182 4.31646 21.0452 5.80911 21.1038C6.66039 21.1389 7.06854 21.4551 7.04522 22.0641L6.77701 29.6413C6.59043 34.8879 8.07142 38.495 11.2433 40.4859C12.8642 41.4579 14.6834 42.1606 16.6892 42.5939C18.6949 43.0272 20.8173 43.2848 23.0563 43.3668C25.2953 43.4488 27.1028 43.3785 29.3534 43.1912C31.5924 43.0038 33.3416 42.7344 34.5894 42.3597C35.8022 41.9498 36.4435 40.6381 36.5252 38.4364C36.6418 35.4149 36.187 33.8807 35.1375 33.8456Z" fill="white"/>
<path d="M55.3117 21.9702C55.2301 21.127 55.1252 20.4243 54.9852 19.8505C60.0113 19.4406 62.5418 17.2037 62.5534 13.1282C62.5534 11.1959 61.8304 9.66171 60.3844 8.54914C58.9268 7.42487 56.7694 6.86273 53.9124 6.86273C47.3587 6.83931 44.0818 9.08786 44.0702 13.585C44.0702 15.3768 44.7116 16.7821 45.9943 17.8127L41.3881 17.9298C40.1636 17.965 39.359 18.2577 38.9742 18.7965C38.5893 19.3469 38.3445 20.5063 38.2512 22.263C38.1579 24.0314 38.1695 27.3222 38.2861 32.1589C38.4144 36.9957 38.6243 40.5676 38.9392 42.8981C39.0208 43.5071 39.324 44.0341 39.8488 44.4908C40.3619 44.9476 41.3414 45.1935 42.7874 45.2521C44.2334 45.2989 45.831 45.3106 47.6036 45.2638C49.3644 45.2169 50.8921 45.135 52.1632 45.0061C53.4343 44.889 54.3205 44.5845 54.822 44.1044C55.3117 43.6242 55.6033 43.0738 55.6966 42.4648C55.8598 40.4505 55.8831 36.984 55.7549 32.0887C55.6266 27.1934 55.4867 23.8089 55.3117 21.9702Z" fill="white"/>
<path d="M82.3191 57.3381L75.5788 78.0904H70.751L66.6112 65.4423L62.4714 78.0904H57.6436L50.9033 57.3381H56.3142L60.1508 70.1385L64.5005 57.3381H68.7336L73.0833 70.1385L76.9198 57.3381H82.3191Z" fill="#1D1D1B"/>
<path d="M97.2108 70.6185C97.2108 75.1742 93.8873 78.3479 89.1761 78.3479C84.4649 78.3479 81.1064 75.1625 81.1064 70.6185C81.1064 66.098 84.4533 62.854 89.1761 62.854C93.8873 62.854 97.2108 66.098 97.2108 70.6185ZM92.6162 70.6185C92.6162 68.4988 91.1935 66.9764 89.1761 66.9764C87.1237 66.9764 85.701 68.4988 85.701 70.6185C85.701 72.7734 87.1237 74.2607 89.1761 74.2607C91.1935 74.2607 92.6162 72.7734 92.6162 70.6185Z" fill="#1D1D1B"/>
<path d="M109.595 67.6791C107.204 67.7728 105.7 68.4052 104.546 69.5295V77.9616H99.6245V63.2523H104.546V64.8333C105.84 63.709 107.414 63.0181 109.595 63.0181V67.6791Z" fill="#1D1D1B"/>
<path d="M118.959 72.8671L116.93 75.0454V77.9615H112.009V56.4246H116.93V68.7448L122.003 63.2522H127.833L122.271 69.2601L128.311 77.9615H122.457L118.959 72.8671Z" fill="#1D1D1B"/>
<path d="M135.926 74.7526C137.221 74.7526 138.037 74.3896 138.037 73.7571C138.037 73.2419 137.465 72.8788 136.498 72.7266L133.536 72.2113C131.028 71.7897 129.244 70.3609 129.244 67.7844C129.244 64.6927 131.868 62.8657 135.763 62.8657C139.238 62.8657 142.375 64.0486 142.585 67.9367H138.27C138.177 66.8475 137.127 66.3557 135.763 66.3557C134.492 66.3557 133.92 66.8124 133.92 67.3511C133.92 67.8664 134.282 68.3232 135.46 68.534L138.177 68.9907C140.894 69.506 142.736 70.8411 142.736 73.4527C142.736 76.8489 139.716 78.3714 135.88 78.3714C132.101 78.3714 128.988 76.8255 128.661 72.9139L133.011 72.9491C133.244 74.2022 134.387 74.7526 135.926 74.7526Z" fill="#1D1D1B"/>
<path d="M160.579 69.5646V77.9615H155.681V70.3492C155.681 68.2529 154.62 67.316 152.987 67.316C152.113 67.316 151.18 67.7727 150.328 68.7096V77.9615H145.407V56.4246H150.328V64.2242C151.506 63.3459 152.777 62.854 154.34 62.854C158.036 62.854 160.579 65.3719 160.579 69.5646Z" fill="#1D1D1B"/>
<path d="M179.143 70.6185C179.143 75.1742 175.82 78.3479 171.109 78.3479C166.398 78.3479 163.039 75.1625 163.039 70.6185C163.039 66.098 166.398 62.854 171.109 62.854C175.82 62.854 179.143 66.098 179.143 70.6185ZM174.56 70.6185C174.56 68.4988 173.138 66.9764 171.12 66.9764C169.068 66.9764 167.645 68.4988 167.645 70.6185C167.645 72.7734 169.068 74.2607 171.12 74.2607C173.138 74.2607 174.56 72.7734 174.56 70.6185Z" fill="#1D1D1B"/>
<path d="M197.999 70.5952C197.999 74.9635 194.676 78.266 190.723 78.266C189.125 78.266 187.819 77.8444 186.735 77.1769V85H181.802V63.2523H186.723V64.0135C187.807 63.346 189.113 62.9243 190.711 62.9243C194.676 62.9126 197.999 66.1918 197.999 70.5952ZM193.195 70.5952C193.195 68.5574 191.749 66.9296 189.755 66.9296C188.694 66.9296 187.644 67.2575 186.735 68.2998V72.914C187.644 73.9446 188.694 74.2491 189.755 74.2491C191.749 74.2374 193.195 72.6212 193.195 70.5952Z" fill="#1D1D1B"/>
</svg>
